<?xml version="1.0" encoding="UTF-8"?>
<svg version="1.1" xmlns="http://www.w3.org/2000/svg" width="500" height="500">
<path d="M0 0 C4.9299259 2.81999877 8.18110201 7.48720401 10.6875 12.5 C10.77150529 14.09447464 10.79477467 15.69240545 10.78515625 17.2890625 C10.78193359 18.23007813 10.77871094 19.17109375 10.77539062 20.140625 C10.76701172 21.12546875 10.75863281 22.1103125 10.75 23.125 C10.74548828 24.11757812 10.74097656 25.11015625 10.73632812 26.1328125 C10.72452145 28.5886016 10.708054 31.04427104 10.6875 33.5 C10.0275 33.5 9.3675 33.5 8.6875 33.5 C8.6875 34.16 8.6875 34.82 8.6875 35.5 C2.73046875 35.890625 2.73046875 35.890625 0.6875 35.5 C-2.02722304 33.08487478 -2.30488917 31.5731441 -2.68359375 27.93359375 C-2.71701078 25.92267459 -2.75002485 23.9115865 -2.75195312 21.90039062 C-2.86428981 17.81303881 -2.86428981 17.81303881 -5.16015625 14.56640625 C-8.15501865 13.08256335 -10.01543556 12.95048926 -13.3125 13.5 C-16.19324347 16.27083624 -17.23061863 17.94089571 -17.81420898 21.92578125 C-17.81235596 23.20839844 -17.81050293 24.49101563 -17.80859375 25.8125 C-17.8107766 26.8495105 -17.8107766 26.8495105 -17.81300354 27.9074707 C-17.81135009 29.36316154 -17.79985082 30.81887087 -17.77905273 32.27441406 C-17.75008355 34.49359933 -17.75845574 36.7103941 -17.77148438 38.9296875 C-18.00821064 47.74217765 -18.00821064 47.74217765 -14.3125 55.5 C-11.91898505 56.66210219 -11.91898505 56.66210219 -9.3125 56.5 C-7.97400329 55.50692179 -6.64098691 54.50642948 -5.3125 53.5 C-1.24599915 52.88118465 0.43040835 53.35717131 4.0625 55.375 C4.92875 56.07625 5.795 56.7775 6.6875 57.5 C6.6875 58.16 6.6875 58.82 6.6875 59.5 C7.3475 59.5 8.0075 59.5 8.6875 59.5 C11.33821817 63.43955684 11.04673336 67.75477479 11.09375 72.32421875 C11.10515015 73.18505569 11.11655029 74.04589264 11.1282959 74.93281555 C11.14716738 76.75423288 11.16025258 78.57571805 11.16796875 80.3972168 C11.18731614 83.16123392 11.24934415 85.92223185 11.3125 88.68554688 C11.50532312 104.68886704 11.50532312 104.68886704 6.34863281 110.99511719 C3.31839384 113.74032486 -0.05464832 116.5 -4.3125 116.5 C-4.3125 124.09 -4.3125 131.68 -4.3125 139.5 C-2.765625 138.406875 -1.21875 137.31375 0.375 136.1875 C9.8384434 129.5 9.8384434 129.5 13.6875 129.5 C13.6875 128.84 13.6875 128.18 13.6875 127.5 C14.24179687 127.31566406 14.79609375 127.13132813 15.3671875 126.94140625 C17.75262334 125.986383 19.6543731 125.08224865 21.6875 123.5 C22.62588697 121.1308885 22.98193153 119.05331502 23.23828125 116.5234375 C23.6875 114.5 23.6875 114.5 26.6875 112.5 C32.32601268 112.6342503 37.10177802 115.40101736 41.6875 118.5 C42.91810421 120.96120841 42.8932723 122.75776866 43.00390625 125.5078125 C43.06674805 126.98701172 43.06674805 126.98701172 43.13085938 128.49609375 C43.17017578 129.52863281 43.20949219 130.56117188 43.25 131.625 C43.29318359 132.66527344 43.33636719 133.70554688 43.38085938 134.77734375 C43.4871288 137.35142528 43.58916583 139.92560508 43.6875 142.5 C44.19611572 142.1918335 44.70473145 141.88366699 45.22875977 141.56616211 C47.55789698 140.17005499 49.90328037 138.80382857 52.25 137.4375 C53.04986328 136.95216797 53.84972656 136.46683594 54.67382812 135.96679688 C58.29422016 133.88322432 60.88991679 132.54562833 65.1015625 132.3046875 C70.35060012 134.05436671 74.8086106 136.78696136 79.5 139.6875 C80.90088867 140.53538086 80.90088867 140.53538086 82.33007812 141.40039062 C85.12136508 143.091434 87.90439966 144.79552695 90.6875 146.5 C96.75596626 150.18689387 102.85095282 153.71693102 109.14453125 157.0078125 C111.99292872 158.67922238 114.30927878 160.19048034 116.6875 162.5 C117.30223083 165.4597168 117.30223083 165.4597168 117.28686523 168.94921875 C117.29294296 170.25737549 117.29902069 171.56553223 117.30528259 172.91333008 C117.28637729 174.33806456 117.26662722 175.76278805 117.24609375 177.1875 C117.24184171 178.65193257 117.23951486 180.11637189 117.23902893 181.58081055 C117.23286724 184.64760968 117.2101879 187.71367735 117.17456055 190.78027344 C117.12928795 194.70790038 117.11453436 198.63486511 117.11082363 202.56272888 C117.1063909 205.58596304 117.09107982 208.60905871 117.0719471 211.63223267 C117.06307833 213.08028018 117.05634182 214.5283424 117.05178642 215.97640991 C117.04272529 218.00127203 117.01864136 220.02605006 116.99389648 222.05078125 C116.98325668 223.20231689 116.97261688 224.35385254 116.96165466 225.5402832 C116.6938708 228.43122221 116.26387831 230.09105974 114.6875 232.5 C112.8046875 233.80859375 112.8046875 233.80859375 110.5625 234.9375 C106.68441113 236.95160422 103.04543135 239.15364673 99.4140625 241.58203125 C97.6875 242.5 97.6875 242.5 94.6875 242.5 C94.6875 243.16 94.6875 243.82 94.6875 244.5 C93.72070312 245.00789062 92.75390625 245.51578125 91.7578125 246.0390625 C84.97632181 249.61874012 78.26403465 253.23851571 71.73828125 257.2734375 C71.06152344 257.67820312 70.38476562 258.08296875 69.6875 258.5 C69.04167969 258.90476562 68.39585937 259.30953125 67.73046875 259.7265625 C64.85198305 260.81631426 63.62106458 260.49583522 60.6875 259.5 C57.86738242 257.96994406 55.18715037 256.25090341 52.5 254.5 C51.06937276 253.58276793 49.63839931 252.66607556 48.20703125 251.75 C47.57901611 251.34265625 46.95100098 250.9353125 46.30395508 250.515625 C44.65652154 249.44402309 44.65652154 249.44402309 42.6875 248.5 C42.71368408 249.20084717 42.73986816 249.90169434 42.7668457 250.6237793 C42.8710354 253.8114565 42.93589583 256.99877526 43 260.1875 C43.0628418 261.84168945 43.0628418 261.84168945 43.12695312 263.52929688 C43.14306641 264.59599609 43.15917969 265.66269531 43.17578125 266.76171875 C43.20196533 267.74100342 43.22814941 268.72028809 43.25512695 269.72924805 C42.27215736 274.52740803 38.90089087 276.69514429 34.97119141 279.30175781 C34.00358887 279.84670898 33.03598633 280.39166016 32.0390625 280.953125 C30.95761963 281.56857178 29.87617676 282.18401855 28.76196289 282.81811523 C27.62364014 283.45563721 26.48531738 284.09315918 25.3125 284.75 C22.96836092 286.07645258 20.62692326 287.40764674 18.28515625 288.73828125 C17.15352051 289.37975098 16.02188477 290.0212207 14.85595703 290.68212891 C10.16402075 293.37408125 5.54241945 296.17877235 0.96533203 299.06152344 C-1.72707896 300.72101732 -3.07531869 301.5 -6.3125 301.5 C-6.3125 302.16 -6.3125 302.82 -6.3125 303.5 C-9.36513664 304.48120464 -11.25986336 304.48120464 -14.3125 303.5 C-14.3125 302.84 -14.3125 302.18 -14.3125 301.5 C-14.88218506 301.3868042 -15.45187012 301.2736084 -16.03881836 301.15698242 C-18.57195781 300.42502943 -20.44661782 299.36866512 -22.69140625 297.98828125 C-23.52526855 297.48031006 -24.35913086 296.97233887 -25.21826172 296.44897461 C-26.09498535 295.90893799 -26.97170898 295.36890137 -27.875 294.8125 C-36.85082714 289.35270211 -45.85903884 284.0989811 -55.3125 279.5 C-55.3125 278.84 -55.3125 278.18 -55.3125 277.5 C-55.89 277.4175 -56.4675 277.335 -57.0625 277.25 C-60.04520091 276.25576636 -61.31271568 274.91559125 -63.3125 272.5 C-63.85839844 269.93457031 -63.85839844 269.93457031 -63.921875 267.078125 C-63.95410156 266.05332031 -63.98632812 265.02851563 -64.01953125 263.97265625 C-64.03371094 262.90917969 -64.04789062 261.84570312 -64.0625 260.75 C-64.10697266 259.13158203 -64.10697266 259.13158203 -64.15234375 257.48046875 C-64.22296936 254.82023756 -64.27570196 252.16087898 -64.3125 249.5 C-66.54205653 250.77015331 -68.77115426 252.04110048 -71 253.3125 C-71.62583984 253.66892578 -72.25167969 254.02535156 -72.89648438 254.39257812 C-73.81977539 254.91948242 -73.81977539 254.91948242 -74.76171875 255.45703125 C-75.6751001 255.97257568 -75.6751001 255.97257568 -76.60693359 256.49853516 C-78.09798816 257.37404415 -79.53372213 258.34240876 -80.95703125 259.32421875 C-83.99489174 260.84063004 -85.07596682 260.41719723 -88.3125 259.5 C-90.27794736 258.52469897 -92.20577502 257.47180746 -94.1015625 256.3671875 C-95.76251953 255.40425781 -95.76251953 255.40425781 -97.45703125 254.421875 C-98.03018066 254.08478516 -98.60333008 253.74769531 -99.19384766 253.40039062 C-100.90759666 252.39258527 -102.62758279 251.39541021 -104.34765625 250.3984375 C-110.60836101 246.75058178 -116.76942366 242.98989598 -122.83325195 239.02294922 C-126.20566842 236.95134568 -129.71669641 235.27633315 -133.31640625 233.640625 C-135.3125 232.5 -135.3125 232.5 -137.3125 229.5 C-137.59338379 226.58460999 -137.59338379 226.58460999 -137.63476562 222.98071289 C-137.64966034 221.99482933 -137.64966034 221.99482933 -137.66485596 220.98902893 C-137.69404358 218.81686201 -137.70769154 216.64498696 -137.71875 214.47265625 C-137.73025575 212.96194959 -137.74177118 211.45124301 -137.7532959 209.9405365 C-137.77429874 206.77390178 -137.78599574 203.60736838 -137.79296875 200.44067383 C-137.80394822 196.383658 -137.85202588 192.32798147 -137.90891266 188.27138615 C-137.94616434 185.1512409 -137.95657625 182.03141872 -137.9596405 178.91106987 C-137.96569316 177.41548765 -137.98174989 175.91991109 -138.00801086 174.4245472 C-138.04214956 172.33155485 -138.0383774 170.24183975 -138.02539062 168.14868164 C-138.03268188 166.95860001 -138.03997314 165.76851837 -138.04748535 164.54237366 C-137.3125 161.5 -137.3125 161.5 -134.45544434 159.0844574 C-131.3125 157.5 -131.3125 157.5 -128.3125 157.5 C-128.3125 156.84 -128.3125 156.18 -128.3125 155.5 C-126.70833333 154.625 -125.10416667 153.75 -123.5 152.875 C-122.48550781 152.32070312 -121.47101563 151.76640625 -120.42578125 151.1953125 C-118.53058405 150.16329796 -116.63280277 149.13598666 -114.73046875 148.1171875 C-110.45285439 145.81739483 -106.23036945 143.46609759 -102.0859375 140.93359375 C-101.33973145 140.48145508 -100.59352539 140.02931641 -99.82470703 139.56347656 C-98.34814425 138.66536434 -96.87742311 137.75755627 -95.41357422 136.83886719 C-91.0630263 134.20062811 -87.53740787 132.30918704 -82.3125 132.5 C-78.62508937 133.97325333 -75.28190062 135.90905737 -71.875 137.9375 C-70.95267578 138.46666016 -70.03035156 138.99582031 -69.08007812 139.54101562 C-66.81400949 140.84429862 -64.55936272 142.1639674 -62.3125 143.5 C-62.32821045 142.7886792 -62.3439209 142.0773584 -62.36010742 141.34448242 C-62.42241915 138.12556896 -62.46147867 134.90678232 -62.5 131.6875 C-62.52513672 130.56794922 -62.55027344 129.44839844 -62.57617188 128.29492188 C-62.58583984 127.22177734 -62.59550781 126.14863281 -62.60546875 125.04296875 C-62.6211792 124.05321045 -62.63688965 123.06345215 -62.65307617 122.04370117 C-62.25744274 119.08878742 -61.63636187 118.2864666 -59.3125 116.5 C-55.79554696 114.23384616 -52.67332351 112.47041688 -48.4375 112.5625 C-46.3125 113.5 -46.3125 113.5 -44.3125 116.5 C-44.23344936 118.83199388 -44.22451231 121.16832622 -44.3125 123.5 C-42.3325 124.16 -40.3525 124.82 -38.3125 125.5 C-38.3125 126.16 -38.3125 126.82 -38.3125 127.5 C-37.76722656 127.60441406 -37.22195312 127.70882812 -36.66015625 127.81640625 C-33.7660886 128.65910482 -31.38281442 129.97243728 -28.75 131.4375 C-27.79996094 131.96214844 -26.84992188 132.48679688 -25.87109375 133.02734375 C-23.97760839 134.11718189 -22.13030311 135.28813126 -20.3125 136.5 C-20.3125 137.16 -20.3125 137.82 -20.3125 138.5 C-19.3225 138.83 -18.3325 139.16 -17.3125 139.5 C-16.9825 131.91 -16.6525 124.32 -16.3125 116.5 C-18.2925 115.84 -20.2725 115.18 -22.3125 114.5 C-24.1875 113 -24.1875 113 -25.3125 111.5 C-25.3125 110.84 -25.3125 110.18 -25.3125 109.5 C-25.9725 109.5 -26.6325 109.5 -27.3125 109.5 C-30.79609412 103.46406959 -31.92791701 99.11478494 -31.75 92.1875 C-31.75708984 91.39021484 -31.76417969 90.59292969 -31.77148438 89.77148438 C-31.70861963 84.02177803 -31.70861963 84.02177803 -30.00415039 81.77661133 C-27.1969248 79.65812632 -24.69093445 80.13802488 -21.3125 80.5 C-19.625 81.625 -19.625 81.625 -18.3125 83.5 C-17.90625 86.4609375 -17.90625 86.4609375 -17.8125 89.875 C-17.67120872 94.99680877 -17.06201456 98.75048544 -13.3125 102.5 C-9.84962136 102.88476429 -8.0006504 103.00151239 -5.13769531 100.91503906 C-2.67570533 97.657414 -2.85317098 95.60041196 -2.921875 91.546875 C-2.93036469 90.55654266 -2.93036469 90.55654266 -2.93902588 89.54620361 C-2.9613377 87.44671737 -3.01151686 85.3489663 -3.0625 83.25 C-3.08257206 81.8229414 -3.10082161 80.39585592 -3.1171875 78.96875 C-3.16118307 75.47860707 -3.23017124 71.98947301 -3.3125 68.5 C-5.24038823 67.87083498 -5.24038823 67.87083498 -7.3125 67.5 C-7.745625 67.974375 -8.17875 68.44875 -8.625 68.9375 C-10.3125 70.5 -10.3125 70.5 -13.625 70.875 C-20.37707717 70.18834808 -23.82602292 67.35068617 -28.015625 62.31640625 C-30.36435292 59.02677227 -31.55797256 56.39929668 -31.61889648 52.33325195 C-31.63488388 51.52173172 -31.65087128 50.71021149 -31.66734314 49.87409973 C-31.67270584 49.00427963 -31.67806854 48.13445953 -31.68359375 47.23828125 C-31.69262222 46.33305222 -31.7016507 45.42782318 -31.71095276 44.49516296 C-31.72544927 42.57957256 -31.73434051 40.66393271 -31.73803711 38.74829102 C-31.7498888 35.83978957 -31.79904101 32.93344168 -31.84960938 30.02539062 C-31.85907965 28.15886445 -31.86631179 26.29232532 -31.87109375 24.42578125 C-31.89062607 23.56608231 -31.91015839 22.70638336 -31.93028259 21.82063293 C-31.87846862 14.76787977 -29.67355373 9.12367671 -24.83421326 3.90620422 C-17.91657733 -2.20221112 -8.52460977 -3.70492655 0 0 Z M-49.3125 135.5 C-50.6364513 145.59398702 -50.6364513 145.59398702 -47.63671875 154.7421875 C-44.39408395 156.74586311 -42.13698147 157.5 -38.3125 157.5 C-38.3125 158.16 -38.3125 158.82 -38.3125 159.5 C-36.3325 160.16 -34.3525 160.82 -32.3125 161.5 C-32.3125 171.07 -32.3125 180.64 -32.3125 190.5 C-27.0325 187.86 -21.7525 185.22 -16.3125 182.5 C-16.3125 172.93 -16.3125 163.36 -16.3125 153.5 C-19.9425 151.52 -23.5725 149.54 -27.3125 147.5 C-29.13453248 146.43277697 -30.95040667 145.35464076 -32.75 144.25 C-38.15390845 140.69187093 -38.15390845 140.69187093 -44.3125 139.5 C-44.3125 138.84 -44.3125 138.18 -44.3125 137.5 C-46.7875 136.51 -46.7875 136.51 -49.3125 135.5 Z M22.125 138.75 C18.68877077 140.77369213 15.28026219 142.76818228 11.6875 144.5 C11.11733154 144.79285889 10.54716309 145.08571777 9.9597168 145.38745117 C8.2389678 146.22998402 6.47597691 146.98692462 4.69824219 147.70141602 C1.1805642 149.33225685 -1.47797495 150.83955293 -4.3125 153.5 C-5.7958738 158.50527181 -5.45806859 163.29324245 -5.0625 168.4375 C-5.00222941 169.8024993 -4.94748965 171.16775466 -4.8984375 172.53320312 C-4.75728601 175.86202577 -4.56050311 179.17771219 -4.3125 182.5 C-2.02375827 183.83858524 0.26819656 185.17101014 2.5625 186.5 C3.53896484 187.07234375 3.53896484 187.07234375 4.53515625 187.65625 C7.89100201 189.77551156 7.89100201 189.77551156 11.6875 190.5 C11.67066162 189.68321777 11.65382324 188.86643555 11.63647461 188.02490234 C11.58606439 184.30721476 11.60485349 180.5929471 11.625 176.875 C11.58342773 174.94720703 11.58342773 174.94720703 11.54101562 172.98046875 C11.66153508 163.67636672 11.66153508 163.67636672 14.51611328 160.40332031 C16.84902186 158.82956029 19.13006329 157.67139245 21.6875 156.5 C23.9975 155.18 26.3075 153.86 28.6875 152.5 C28.6875 146.89 28.6875 141.28 28.6875 135.5 C26.46877383 135.5 23.93213246 137.67341045 22.125 138.75 Z M-90.875 150 C-94.93512728 152.67162573 -99.06705 154.94742809 -103.4375 157.0625 C-108.62090184 159.60893104 -113.49485942 162.32035722 -118.3125 165.5 C-115.64002366 167.84287418 -115.64002366 167.84287418 -112.3125 168.5 C-112.3125 169.16 -112.3125 169.82 -112.3125 170.5 C-109.66511084 171.9606285 -108.41801666 172.5 -105.3125 172.5 C-105.3125 173.16 -105.3125 173.82 -105.3125 174.5 C-104.13494141 175.08007812 -104.13494141 175.08007812 -102.93359375 175.671875 C-101.88300781 176.19265625 -100.83242187 176.7134375 -99.75 177.25 C-98.65300781 177.79269531 -97.55601562 178.33539063 -96.42578125 178.89453125 C-93.99459511 180.14825459 -91.73215505 181.46125465 -89.4375 182.9375 C-85.62433405 184.84408298 -84.38475385 184.53666389 -80.3125 183.5 C-77.11256162 181.98139922 -77.11256162 181.98139922 -73.875 180 C-73.28315918 179.65195313 -72.69131836 179.30390625 -72.08154297 178.9453125 C-70.15238156 177.80689028 -68.23216901 176.65434776 -66.3125 175.5 C-64.89732107 174.65593866 -63.481954 173.81219266 -62.06640625 172.96875 C-58.47472132 170.82405974 -54.89165071 168.66553657 -51.3125 166.5 C-53.6489828 163.89714294 -56.0232959 162.46537901 -59.125 160.875 C-62.49085953 159.10043661 -65.74094864 157.25806249 -68.90234375 155.14453125 C-69.51037842 154.7386377 -70.11841309 154.33274414 -70.74487305 153.91455078 C-71.92934623 153.11493195 -73.1070341 152.30513949 -74.27661133 151.48388672 C-79.89185289 147.70441293 -85.05473869 145.91852874 -90.875 150 Z M56.4375 150 C55.54546875 150.4640625 54.6534375 150.928125 53.734375 151.40625 C53.05890625 151.7671875 52.3834375 152.128125 51.6875 152.5 C51.6875 153.16 51.6875 153.82 51.6875 154.5 C51.12546875 154.60699219 50.5634375 154.71398437 49.984375 154.82421875 C47.29892964 155.61432427 45.30581325 156.82287622 42.9375 158.3125 C38.61793755 160.97217124 34.25658871 163.3000684 29.6875 165.5 C36.8879253 171.88813975 36.8879253 171.88813975 45.6875 174.5 C45.6875 175.16 45.6875 175.82 45.6875 176.5 C46.615625 176.87125 47.54375 177.2425 48.5 177.625 C50.95243645 178.61687974 52.92303121 179.66601297 55.09619141 181.19775391 C57.95068054 183.12812404 60.38247531 184.49870368 63.6875 185.5 C68.13268118 184.52321063 71.49980294 182.26356391 75.25 179.75 C76.21357422 179.15316406 77.17714844 178.55632812 78.16992188 177.94140625 C80.08624981 176.75000075 81.99108156 175.53988257 83.88330078 174.31054688 C88.0857 171.59724437 92.38420268 169.04914317 96.6875 166.5 C94.16796273 163.86508845 91.74439695 162.31812676 88.5 160.625 C84.29774425 158.39863934 80.28676106 156.03933267 76.34375 153.3828125 C74.55907231 152.26481391 74.55907231 152.26481391 71.6875 152.5 C71.6875 151.84 71.6875 151.18 71.6875 150.5 C65.68986663 147.22856362 62.51066093 146.80359951 56.4375 150 Z M-123.3125 177.5 C-125.29862873 183.45838618 -124.4182553 190.2960188 -124.31884766 196.53466797 C-124.31205584 199.7074895 -124.42512862 202.86465115 -124.54296875 206.03515625 C-125.22615354 216.55030752 -125.22615354 216.55030752 -122.16650391 226.2890625 C-118.79541575 229.51608706 -114.62495438 230.94259331 -110.3125 232.5 C-108.35770532 233.55180565 -106.41849006 234.6333473 -104.5 235.75 C-101.40827428 237.42120309 -98.28615022 239.01962168 -95.1418457 240.58886719 C-94.42398392 240.94728699 -93.70612213 241.30570679 -92.96650696 241.67498779 C-92.42068466 241.94724182 -91.87486237 242.21949585 -91.3125 242.5 C-91.05849503 235.9171819 -90.88365853 229.33562916 -90.76318359 222.74902344 C-90.71295805 220.50993642 -90.6447599 218.27117638 -90.55810547 216.03320312 C-90.43646246 212.81037899 -90.38003414 209.59189155 -90.3359375 206.3671875 C-90.28432465 205.37008759 -90.23271179 204.37298767 -90.17953491 203.34567261 C-90.17717922 200.41233127 -90.28163038 198.25105405 -91.3125 195.5 C-94.3518386 192.79413487 -97.61855989 191.15420116 -101.3125 189.5 C-102.30121094 188.943125 -103.28992188 188.38625 -104.30859375 187.8125 C-105.51708984 187.1628125 -105.51708984 187.1628125 -106.75 186.5 C-107.65234375 186.01273438 -108.5546875 185.52546875 -109.484375 185.0234375 C-110.41765625 184.52070313 -111.3509375 184.01796875 -112.3125 183.5 C-114.37558811 182.37607887 -116.43810644 181.2511111 -118.5 180.125 C-119.42167969 179.62226563 -120.34335938 179.11953125 -121.29296875 178.6015625 C-121.95941406 178.23804688 -122.62585938 177.87453125 -123.3125 177.5 Z M-50.6875 180.125 C-55.81518933 184.08815916 -61.48023319 186.73383917 -67.3125 189.5 C-68.64759698 190.16312764 -69.98171114 190.82826848 -71.3125 191.5 C-71.3125 192.16 -71.3125 192.82 -71.3125 193.5 C-71.910625 193.62375 -72.50875 193.7475 -73.125 193.875 C-75.57481348 194.45475985 -75.57481348 194.45475985 -78.3125 196.5 C-78.74935816 198.55418895 -78.74935816 198.55418895 -78.65307617 200.94970703 C-78.65284958 201.87051056 -78.65262299 202.79131409 -78.65238953 203.74002075 C-78.63690567 204.73589203 -78.62142181 205.73176331 -78.60546875 206.7578125 C-78.60122391 207.77600067 -78.59697906 208.79418884 -78.59260559 209.8432312 C-78.57577579 213.10408673 -78.53811546 216.36433041 -78.5 219.625 C-78.48495874 221.83202234 -78.47126937 224.03905434 -78.45898438 226.24609375 C-78.4258583 231.66427223 -78.37561653 237.08209242 -78.3125 242.5 C-76.3325 242.005 -76.3325 242.005 -74.3125 241.5 C-74.3125 240.84 -74.3125 240.18 -74.3125 239.5 C-73.796875 239.4175 -73.28125 239.335 -72.75 239.25 C-67.51740261 237.73964188 -67.51740261 237.73964188 -63.3125 234.5 C-62.33538025 230.32323105 -62.47115895 226.20889575 -62.5625 221.9375 C-62.58034016 219.66542865 -62.58611139 217.3932211 -62.578125 215.12109375 C-62.59649414 214.1148999 -62.61486328 213.10870605 -62.63378906 212.07202148 C-62.3125 209.5 -62.3125 209.5 -60.95581055 207.74023438 C-57.88745676 205.42449567 -54.41778908 203.8394332 -51.00390625 202.09765625 C-48.12234932 200.3871239 -46.26340143 199.23946673 -44.3125 196.5 C-43.81312975 193.60710941 -43.88954198 190.80091012 -44 187.875 C-44.00966797 187.09898437 -44.01933594 186.32296875 -44.02929688 185.5234375 C-44.0383661 181.3773598 -44.0383661 181.3773598 -45.3125 177.5 C-47.97265848 177.5 -48.64647087 178.44567224 -50.6875 180.125 Z M24.6875 177.5 C24.6006671 180.958176 24.54716718 184.41607344 24.5 187.875 C24.47486328 188.85984375 24.44972656 189.8446875 24.42382812 190.859375 C24.41416016 191.80039062 24.40449219 192.74140625 24.39453125 193.7109375 C24.3788208 194.58024902 24.36311035 195.44956055 24.34692383 196.34521484 C24.45931396 197.05629395 24.5717041 197.76737305 24.6875 198.5 C27.50259993 200.7773501 27.50259993 200.7773501 30.6875 200.5 C30.6875 201.16 30.6875 201.82 30.6875 202.5 C31.47358643 202.78157959 32.25967285 203.06315918 33.06958008 203.35327148 C36.3819694 204.78631709 38.94959367 206.13629743 41.6875 208.5 C43.02604205 212.87516738 42.68764278 217.03293145 42.375 221.5625 C41.45535382 229.50394334 41.45535382 229.50394334 44.38134766 236.42138672 C47.61202338 238.5173789 49.80685289 239.5 53.6875 239.5 C53.6875 240.16 53.6875 240.82 53.6875 241.5 C55.0075 241.83 56.3275 242.16 57.6875 242.5 C57.94153922 236.05961617 58.116354 229.62052622 58.23681641 223.17626953 C58.28703712 220.98567437 58.35523196 218.79541333 58.44189453 216.60595703 C58.56356234 213.4526138 58.61996956 210.3037031 58.6640625 207.1484375 C58.71567535 206.17321136 58.76728821 205.19798523 58.82046509 204.19320679 C58.82283085 201.3100415 58.71152806 199.20003912 57.6875 196.5 C54.6523699 193.79523935 51.36499706 192.17768971 47.6875 190.5 C46.2470844 189.70758854 44.81204763 188.90517531 43.38671875 188.0859375 C41.36946012 186.97108539 39.34971755 185.86121395 37.32617188 184.7578125 C33.46558422 182.61848198 30.1352123 180.2757538 26.6875 177.5 C26.0275 177.5 25.3675 177.5 24.6875 177.5 Z M97.3125 180.125 C91.86151322 183.42815842 86.29601681 186.47518195 80.6875 189.5 C77.0575 191.48 73.4275 193.46 69.6875 195.5 C69.6875 211.01 69.6875 226.52 69.6875 242.5 C74.12570369 240.72471852 78.05934326 238.80969331 82.16430664 236.39794922 C84.70385946 234.9570107 87.25524018 233.865579 89.97924805 232.81884766 C94.82869262 230.76593442 99.28366632 228.62628576 102.6875 224.5 C105.47297408 216.88688768 104.27999446 208.30197599 103.75 200.375 C103.66463722 198.1565395 103.58708586 195.93776385 103.51757812 193.71875 C103.33106742 188.30557697 103.0475565 182.90425747 102.6875 177.5 C100.72764931 177.5 98.92099947 179.13554449 97.3125 180.125 Z M-18.625 196.875 C-19.21877441 197.22643066 -19.81254883 197.57786133 -20.42431641 197.93994141 C-22.39495437 199.11394935 -24.3537041 200.30635147 -26.3125 201.5 C-27.04227051 201.93828125 -27.77204102 202.3765625 -28.52392578 202.828125 C-30.75132561 204.16716217 -32.97076883 205.51838536 -35.1875 206.875 C-35.89559814 207.30345215 -36.60369629 207.7319043 -37.33325195 208.17333984 C-39.02865675 209.22690533 -40.67623706 210.35674096 -42.3125 211.5 C-42.3125 212.16 -42.3125 212.82 -42.3125 213.5 C-38.89996638 215.42300881 -35.48601179 217.34346876 -32.07080078 219.26171875 C-30.34724921 220.23046865 -28.62478491 221.20115215 -26.90234375 222.171875 C-24.7019429 223.40718776 -22.49394878 224.62908569 -20.27807617 225.83642578 C-17.3125 227.5 -17.3125 227.5 -15.05981445 229.03466797 C-12.92217142 230.53203584 -12.92217142 230.53203584 -9.3125 231.5 C-5.61817103 230.33657958 -2.66978028 228.31293629 0.5 226.125 C2.26077632 224.98552155 4.02248898 223.84748863 5.78515625 222.7109375 C6.62578613 222.1550293 7.46641602 221.59912109 8.33251953 221.02636719 C11.29727785 219.10477595 14.32033745 217.41194622 17.4375 215.75 C18.27796875 215.30140625 19.1184375 214.8528125 19.984375 214.390625 C20.54640625 214.09671875 21.1084375 213.8028125 21.6875 213.5 C21.50280586 211.57572008 21.50280586 211.57572008 20.6875 209.5 C18.84850862 208.02258547 18.84850862 208.02258547 16.49609375 206.87890625 C15.63306641 206.41806641 14.77003906 205.95722656 13.88085938 205.48242188 C12.97142578 205.01384766 12.06199219 204.54527344 11.125 204.0625 C9.35167494 203.12855744 7.57952417 202.19238157 5.80859375 201.25390625 C4.94347168 200.80031738 4.07834961 200.34672852 3.18701172 199.87939453 C0.82010078 198.57317781 -1.40441304 197.15149228 -3.65234375 195.65234375 C-9.56757864 191.92514978 -12.77999776 193.39959326 -18.625 196.875 Z M-49.3125 223.5 C-51.87840558 228.63181116 -50.62593912 236.75278167 -50.66259766 242.46606445 C-50.67915332 244.35844219 -50.70643835 246.2507575 -50.74462891 248.14282227 C-50.79944472 250.87288814 -50.82127818 253.6014889 -50.8359375 256.33203125 C-50.85860687 257.17490189 -50.88127625 258.01777252 -50.90463257 258.88618469 C-50.88898647 263.24506038 -50.75624056 264.94619205 -47.94042969 268.46044922 C-45.41959643 270.41688187 -42.93347566 272.1875878 -40.1875 273.8125 C-39.33929688 274.32425781 -38.49109375 274.83601563 -37.6171875 275.36328125 C-35.29237183 276.72117137 -35.29237183 276.72117137 -32.3125 276.5 C-32.3125 277.16 -32.3125 277.82 -32.3125 278.5 C-31.33410156 278.98919922 -31.33410156 278.98919922 -30.3359375 279.48828125 C-25.66145833 281.82552083 -20.98697917 284.16276042 -16.3125 286.5 C-16.08956077 280.34382857 -15.92650194 274.19001715 -15.81811523 268.03076172 C-15.77292795 265.93724638 -15.71156164 263.84401395 -15.63354492 261.75146484 C-15.52400208 258.73724669 -15.47326318 255.72678656 -15.43359375 252.7109375 C-15.38714218 251.77945892 -15.34069061 250.84798035 -15.29283142 249.88827515 C-15.290717 247.1496462 -15.39626081 245.084883 -16.3125 242.5 C-19.02004009 239.8779976 -21.97988766 238.21623871 -25.3125 236.5 C-26.3025 235.84 -27.2925 235.18 -28.3125 234.5 C-29.3025 234.5 -30.2925 234.5 -31.3125 234.5 C-31.3125 233.84 -31.3125 233.18 -31.3125 232.5 C-32.13234375 232.10167969 -32.9521875 231.70335937 -33.796875 231.29296875 C-34.87453125 230.76316406 -35.9521875 230.23335937 -37.0625 229.6875 C-38.66351563 228.90439453 -38.66351563 228.90439453 -40.296875 228.10546875 C-42.86807697 226.73660345 -44.99566808 225.23762394 -47.3125 223.5 C-47.9725 223.5 -48.6325 223.5 -49.3125 223.5 Z M24.5390625 224.87109375 C23.69859375 225.36287109 22.858125 225.85464844 21.9921875 226.36132812 C20.2132405 227.40769127 18.43459196 228.45456201 16.65625 229.50195312 C15.81320312 229.99501953 14.97015625 230.48808594 14.1015625 230.99609375 C13.3276416 231.45169678 12.5537207 231.9072998 11.75634766 232.37670898 C9.6875 233.5 9.6875 233.5 6.6875 234.5 C6.6875 235.16 6.6875 235.82 6.6875 236.5 C6.10396255 236.62490311 5.52042511 236.74980621 4.91920471 236.87849426 C1.15945315 237.9255446 -1.73776146 239.53086494 -4.3125 242.5 C-5.26909006 245.81191374 -5.13132063 248.97066215 -4.99609375 252.39453125 C-4.98618912 253.34188644 -4.97628448 254.28924164 -4.96607971 255.26530457 C-4.92698256 258.28263055 -4.83917187 261.2962794 -4.75 264.3125 C-4.71487998 266.36127547 -4.68294218 268.41010814 -4.65429688 270.45898438 C-4.57723581 275.47406684 -4.45648682 280.4864107 -4.3125 285.5 C-0.96769565 284.88112691 1.58446152 284.20969006 4.5 282.4375 C6.0778125 281.4784375 6.0778125 281.4784375 7.6875 280.5 C7.6875 279.84 7.6875 279.18 7.6875 278.5 C8.26870605 278.37616943 8.84991211 278.25233887 9.44873047 278.12475586 C11.71390394 277.49263166 13.46402312 276.65667381 15.5078125 275.50390625 C16.20777344 275.11009766 16.90773438 274.71628906 17.62890625 274.31054688 C18.34949219 273.89869141 19.07007813 273.48683594 19.8125 273.0625 C20.90498047 272.45051758 20.90498047 272.45051758 22.01953125 271.82617188 C26.11642941 269.52263514 26.11642941 269.52263514 29.6875 266.5 C29.97886164 264.52060859 29.97886164 264.52060859 29.91455078 262.23388672 C29.91432419 260.91274368 29.91432419 260.91274368 29.91409302 259.56491089 C29.90377045 258.61278717 29.89344788 257.66066345 29.8828125 256.6796875 C29.87856766 255.21899338 29.87856766 255.21899338 29.87423706 253.72879028 C29.86301913 250.61073651 29.8379117 247.49296732 29.8125 244.375 C29.80247228 242.26432706 29.79334607 240.15364962 29.78515625 238.04296875 C29.76307458 232.86188165 29.72958129 227.68096115 29.6875 222.5 C27.78912524 222.5 26.12718892 223.93576058 24.5390625 224.87109375 Z " fill="#EAE9E9" transform="translate(260.3125,73.5)"/>
<path d="M0 0 C0.99 0.33 1.98 0.66 3 1 C2.67 9.25 2.34 17.5 2 26 C1.34 26.33 0.68 26.66 0 27 C0 18.09 0 9.18 0 0 Z " fill="#737272" transform="translate(301,320)"/>
<path d="M0 0 C0.99 0.33 1.98 0.66 3 1 C2.67 1.99 2.34 2.98 2 4 C1.91410697 5.39655459 1.88227285 6.79685777 1.88647461 8.19604492 C1.88655014 9.03668991 1.88662567 9.8773349 1.88670349 10.74345398 C1.89186478 11.64666885 1.89702606 12.54988373 1.90234375 13.48046875 C1.9037587 14.40845779 1.90517365 15.33644684 1.90663147 16.29255676 C1.91223063 19.25757058 1.92478296 22.22250899 1.9375 25.1875 C1.94251511 27.19726453 1.947078 29.20703025 1.95117188 31.21679688 C1.96219979 36.14456032 1.97946383 41.07226737 2 46 C1.34 46 0.68 46 0 46 C0 30.82 0 15.64 0 0 Z " fill="#DBDAD9" transform="translate(209,295)"/>
<path d="M0 0 C0 0.33 0 0.66 0 1 C-0.94875 1.28875 -1.8975 1.5775 -2.875 1.875 C-6.05211578 2.76825109 -6.05211578 2.76825109 -8 5 C-8.27654388 6.93681136 -8.27654388 6.93681136 -8.1953125 9.1328125 C-8.18886719 9.93847656 -8.18242187 10.74414062 -8.17578125 11.57421875 C-8.15902344 12.41597656 -8.14226562 13.25773438 -8.125 14.125 C-8.11597656 14.97449219 -8.10695312 15.82398438 -8.09765625 16.69921875 C-8.07405647 18.79959884 -8.03818483 20.89983444 -8 23 C-10.7633734 20.2366266 -10.28850252 18.34452557 -10.32226562 14.57226562 C-10.31904297 13.74404297 -10.31582031 12.91582031 -10.3125 12.0625 C-10.32861328 11.23814453 -10.34472656 10.41378906 -10.36132812 9.56445312 C-10.36197266 8.77103516 -10.36261719 7.97761719 -10.36328125 7.16015625 C-10.36626221 6.43449463 -10.36924316 5.70883301 -10.37231445 4.96118164 C-9.28357764 -0.77378415 -4.94414576 -0.27985731 0 0 Z " fill="#ADADAD" transform="translate(239,154)"/>
<path d="M0 0 C0.99 0.33 1.98 0.66 3 1 C2.84660156 1.50015625 2.69320312 2.0003125 2.53515625 2.515625 C1.80542604 5.90327766 1.63643523 9.29961519 1.4375 12.75 C1.39431641 13.44738281 1.35113281 14.14476562 1.30664062 14.86328125 C1.20110404 16.57531922 1.1001009 18.28763561 1 20 C0.67 20 0.34 20 0 20 C0 13.4 0 6.8 0 0 Z " fill="#C0BFC0" transform="translate(135,249)"/>
<path d="M0 0 C0 0.66 0 1.32 0 2 C-1.47695491 3.28430862 -2.95806138 4.56580708 -4.4921875 5.78125 C-6.13813095 7.06784671 -6.13813095 7.06784671 -8 9 C-8 7.68 -8 6.36 -8 5 C-2.77272727 0 -2.77272727 0 0 0 Z " fill="#AAAAAA" transform="translate(242,74)"/>
<path d="M0 0 C0.99 0.33 1.98 0.66 3 1 C2.34 5.29 1.68 9.58 1 14 C0.67 14 0.34 14 0 14 C0 9.38 0 4.76 0 0 Z " fill="#929191" transform="translate(209,295)"/>
<path d="M0 0 C0.99386719 0.00902344 1.98773438 0.01804687 3.01171875 0.02734375 C4.15060547 0.04474609 4.15060547 0.04474609 5.3125 0.0625 C5.3125 0.3925 5.3125 0.7225 5.3125 1.0625 C4.37277344 1.15337891 4.37277344 1.15337891 3.4140625 1.24609375 C2.59679687 1.32988281 1.77953125 1.41367188 0.9375 1.5 C0.12539062 1.58121094 -0.68671875 1.66242188 -1.5234375 1.74609375 C-3.73022805 1.95340114 -3.73022805 1.95340114 -5.6875 3.0625 C-6.6775 2.4025 -7.6675 1.7425 -8.6875 1.0625 C-5.53819107 0.01273036 -3.29935544 -0.03881595 0 0 Z " fill="#706E6F" transform="translate(250.6875,71.9375)"/>
</svg>
